<mxfile host="drawio-plugin" agent="Mozilla/5.0 (Windows NT 10.0; Win64; x64) AppleWebKit/537.36 (KHTML, like Gecko) Chrome/122.0.0.0 Safari/537.36" modified="2025-03-06T21:55:19.951Z" etag="QsdhILD4oK2OsNqF1vCk" version="22.1.22" type="embed">
  <diagram name="Page-1" id="6133507b-19e7-1e82-6fc7-422aa6c4b21f">
    <mxGraphModel dx="398" dy="274" grid="1" gridSize="10" guides="1" tooltips="1" connect="1" arrows="1" fold="1" page="1" pageScale="1" pageWidth="1100" pageHeight="850" background="none" math="0" shadow="0">
      <root>
        <mxCell id="0" />
        <mxCell id="1" parent="0" />
        <mxCell id="78961159f06e98e8-17" value="SuperCadastros" style="swimlane;html=1;fontStyle=1;align=center;verticalAlign=top;childLayout=stackLayout;horizontal=1;startSize=26;horizontalStack=0;resizeParent=1;resizeLast=0;collapsible=1;marginBottom=0;swimlaneFillColor=#ffffff;rounded=0;shadow=0;comic=0;labelBackgroundColor=none;strokeWidth=1;fillColor=none;fontFamily=Verdana;fontSize=12" parent="1" vertex="1">
          <mxGeometry x="760" y="40" width="160" height="216" as="geometry" />
        </mxCell>
        <mxCell id="78961159f06e98e8-23" value="- id : Long" style="text;html=1;strokeColor=default;fillColor=none;align=left;verticalAlign=top;spacingLeft=4;spacingRight=4;whiteSpace=wrap;overflow=hidden;rotatable=0;points=[[0,0.5],[1,0.5]];portConstraint=eastwest;" parent="78961159f06e98e8-17" vertex="1">
          <mxGeometry y="26" width="160" height="26" as="geometry" />
        </mxCell>
        <mxCell id="78961159f06e98e8-24" value="- Nome : String" style="text;html=1;strokeColor=none;fillColor=none;align=left;verticalAlign=top;spacingLeft=4;spacingRight=4;whiteSpace=wrap;overflow=hidden;rotatable=0;points=[[0,0.5],[1,0.5]];portConstraint=eastwest;" parent="78961159f06e98e8-17" vertex="1">
          <mxGeometry y="52" width="160" height="26" as="geometry" />
        </mxCell>
        <mxCell id="b2nR_o1RXAUHNMXIAekX-2" value="- Tipo : tipoCadastro" style="text;html=1;strokeColor=none;fillColor=none;align=left;verticalAlign=top;spacingLeft=4;spacingRight=4;whiteSpace=wrap;overflow=hidden;rotatable=0;points=[[0,0.5],[1,0.5]];portConstraint=eastwest;" parent="78961159f06e98e8-17" vertex="1">
          <mxGeometry y="78" width="160" height="26" as="geometry" />
        </mxCell>
        <mxCell id="b2nR_o1RXAUHNMXIAekX-22" value="- telefoneContato: String" style="text;html=1;strokeColor=none;fillColor=none;align=left;verticalAlign=top;spacingLeft=4;spacingRight=4;whiteSpace=wrap;overflow=hidden;rotatable=0;points=[[0,0.5],[1,0.5]];portConstraint=eastwest;" parent="78961159f06e98e8-17" vertex="1">
          <mxGeometry y="104" width="160" height="26" as="geometry" />
        </mxCell>
        <mxCell id="b2nR_o1RXAUHNMXIAekX-23" value="- Email : String" style="text;html=1;strokeColor=none;fillColor=none;align=left;verticalAlign=top;spacingLeft=4;spacingRight=4;whiteSpace=wrap;overflow=hidden;rotatable=0;points=[[0,0.5],[1,0.5]];portConstraint=eastwest;" parent="78961159f06e98e8-17" vertex="1">
          <mxGeometry y="130" width="160" height="26" as="geometry" />
        </mxCell>
        <mxCell id="b2nR_o1RXAUHNMXIAekX-69" value="- Login : String" style="text;html=1;strokeColor=none;fillColor=none;align=left;verticalAlign=top;spacingLeft=4;spacingRight=4;whiteSpace=wrap;overflow=hidden;rotatable=0;points=[[0,0.5],[1,0.5]];portConstraint=eastwest;" parent="78961159f06e98e8-17" vertex="1">
          <mxGeometry y="156" width="160" height="26" as="geometry" />
        </mxCell>
        <mxCell id="b2nR_o1RXAUHNMXIAekX-70" value="- Senha : String" style="text;html=1;strokeColor=none;fillColor=none;align=left;verticalAlign=top;spacingLeft=4;spacingRight=4;whiteSpace=wrap;overflow=hidden;rotatable=0;points=[[0,0.5],[1,0.5]];portConstraint=eastwest;" parent="78961159f06e98e8-17" vertex="1">
          <mxGeometry y="182" width="160" height="28" as="geometry" />
        </mxCell>
        <mxCell id="b2nR_o1RXAUHNMXIAekX-3" style="edgeStyle=orthogonalEdgeStyle;rounded=0;orthogonalLoop=1;jettySize=auto;html=1;entryX=0.5;entryY=1;entryDx=0;entryDy=0;" parent="1" source="78961159f06e98e8-43" edge="1">
          <mxGeometry relative="1" as="geometry">
            <mxPoint x="840" y="256" as="targetPoint" />
            <Array as="points">
              <mxPoint x="680" y="286" />
              <mxPoint x="840" y="286" />
            </Array>
          </mxGeometry>
        </mxCell>
        <mxCell id="78961159f06e98e8-43" value="CadProfessores" style="swimlane;html=1;fontStyle=1;align=center;verticalAlign=top;childLayout=stackLayout;horizontal=1;startSize=26;horizontalStack=0;resizeParent=1;resizeLast=0;collapsible=1;marginBottom=0;swimlaneFillColor=#ffffff;rounded=0;shadow=0;comic=0;labelBackgroundColor=none;strokeWidth=1;fillColor=none;fontFamily=Verdana;fontSize=12" parent="1" vertex="1">
          <mxGeometry x="600" y="336" width="170" height="120" as="geometry" />
        </mxCell>
        <mxCell id="78961159f06e98e8-44" value="- Disponibilidade : disponibilidadeDias" style="text;html=1;strokeColor=none;fillColor=none;align=left;verticalAlign=top;spacingLeft=4;spacingRight=4;whiteSpace=wrap;overflow=hidden;rotatable=0;points=[[0,0.5],[1,0.5]];portConstraint=eastwest;" parent="78961159f06e98e8-43" vertex="1">
          <mxGeometry y="26" width="170" height="34" as="geometry" />
        </mxCell>
        <mxCell id="b2nR_o1RXAUHNMXIAekX-20" value="- InstuicaoTrabalho : Integer" style="text;html=1;strokeColor=none;fillColor=none;align=left;verticalAlign=top;spacingLeft=4;spacingRight=4;whiteSpace=wrap;overflow=hidden;rotatable=0;points=[[0,0.5],[1,0.5]];portConstraint=eastwest;" parent="78961159f06e98e8-43" vertex="1">
          <mxGeometry y="60" width="170" height="28" as="geometry" />
        </mxCell>
        <mxCell id="78961159f06e98e8-51" value="" style="line;html=1;strokeWidth=1;fillColor=none;align=left;verticalAlign=middle;spacingTop=-1;spacingLeft=3;spacingRight=3;rotatable=0;labelPosition=right;points=[];portConstraint=eastwest;" parent="78961159f06e98e8-43" vertex="1">
          <mxGeometry y="88" width="170" height="2" as="geometry" />
        </mxCell>
        <mxCell id="b2nR_o1RXAUHNMXIAekX-19" style="edgeStyle=orthogonalEdgeStyle;rounded=0;orthogonalLoop=1;jettySize=auto;html=1;entryX=0.5;entryY=1;entryDx=0;entryDy=0;" parent="1" source="b2nR_o1RXAUHNMXIAekX-4" edge="1">
          <mxGeometry relative="1" as="geometry">
            <mxPoint x="840" y="256" as="targetPoint" />
            <Array as="points">
              <mxPoint x="920" y="286" />
              <mxPoint x="840" y="286" />
            </Array>
          </mxGeometry>
        </mxCell>
        <mxCell id="b2nR_o1RXAUHNMXIAekX-4" value="CadAlunos" style="swimlane;html=1;fontStyle=1;align=center;verticalAlign=top;childLayout=stackLayout;horizontal=1;startSize=26;horizontalStack=0;resizeParent=1;resizeLast=0;collapsible=1;marginBottom=0;swimlaneFillColor=#ffffff;rounded=0;shadow=0;comic=0;labelBackgroundColor=none;strokeWidth=1;fillColor=none;fontFamily=Verdana;fontSize=12" parent="1" vertex="1">
          <mxGeometry x="840" y="336" width="160" height="120" as="geometry" />
        </mxCell>
        <mxCell id="b2nR_o1RXAUHNMXIAekX-5" value="- RA : Long" style="text;html=1;strokeColor=none;fillColor=none;align=left;verticalAlign=top;spacingLeft=4;spacingRight=4;whiteSpace=wrap;overflow=hidden;rotatable=0;points=[[0,0.5],[1,0.5]];portConstraint=eastwest;" parent="b2nR_o1RXAUHNMXIAekX-4" vertex="1">
          <mxGeometry y="26" width="160" height="26" as="geometry" />
        </mxCell>
        <mxCell id="b2nR_o1RXAUHNMXIAekX-21" value="- Periodo : periodos" style="text;html=1;strokeColor=none;fillColor=none;align=left;verticalAlign=top;spacingLeft=4;spacingRight=4;whiteSpace=wrap;overflow=hidden;rotatable=0;points=[[0,0.5],[1,0.5]];portConstraint=eastwest;" parent="b2nR_o1RXAUHNMXIAekX-4" vertex="1">
          <mxGeometry y="52" width="160" height="26" as="geometry" />
        </mxCell>
        <mxCell id="b2nR_o1RXAUHNMXIAekX-8" value="" style="line;html=1;strokeWidth=1;fillColor=none;align=left;verticalAlign=middle;spacingTop=-1;spacingLeft=3;spacingRight=3;rotatable=0;labelPosition=right;points=[];portConstraint=eastwest;" parent="b2nR_o1RXAUHNMXIAekX-4" vertex="1">
          <mxGeometry y="78" width="160" height="8" as="geometry" />
        </mxCell>
        <mxCell id="b2nR_o1RXAUHNMXIAekX-24" value="CadInstituicoesSaude" style="swimlane;html=1;fontStyle=1;align=center;verticalAlign=top;childLayout=stackLayout;horizontal=1;startSize=26;horizontalStack=0;resizeParent=1;resizeLast=0;collapsible=1;marginBottom=0;swimlaneFillColor=#ffffff;rounded=0;shadow=0;comic=0;labelBackgroundColor=none;strokeWidth=1;fillColor=none;fontFamily=Verdana;fontSize=12" parent="1" vertex="1">
          <mxGeometry x="360" y="336" width="160" height="120" as="geometry" />
        </mxCell>
        <mxCell id="b2nR_o1RXAUHNMXIAekX-25" value="- instituicoes : Map&amp;lt;integer, String&amp;gt;" style="text;html=1;strokeColor=default;fillColor=none;align=left;verticalAlign=top;spacingLeft=4;spacingRight=4;whiteSpace=wrap;overflow=hidden;rotatable=0;points=[[0,0.5],[1,0.5]];portConstraint=eastwest;" parent="b2nR_o1RXAUHNMXIAekX-24" vertex="1">
          <mxGeometry y="26" width="160" height="34" as="geometry" />
        </mxCell>
        <mxCell id="b2nR_o1RXAUHNMXIAekX-28" value="" style="endArrow=none;html=1;rounded=0;entryX=1;entryY=0.538;entryDx=0;entryDy=0;entryPerimeter=0;" parent="1" target="b2nR_o1RXAUHNMXIAekX-25" edge="1">
          <mxGeometry width="50" height="50" relative="1" as="geometry">
            <mxPoint x="600" y="416" as="sourcePoint" />
            <mxPoint x="720" y="316" as="targetPoint" />
            <Array as="points">
              <mxPoint x="560" y="416" />
              <mxPoint x="560" y="380" />
            </Array>
          </mxGeometry>
        </mxCell>
        <mxCell id="b2nR_o1RXAUHNMXIAekX-68" value="" style="edgeStyle=orthogonalEdgeStyle;rounded=0;orthogonalLoop=1;jettySize=auto;html=1;entryX=0.421;entryY=0.008;entryDx=0;entryDy=0;entryPerimeter=0;" parent="1" target="b2nR_o1RXAUHNMXIAekX-60" edge="1">
          <mxGeometry relative="1" as="geometry">
            <mxPoint x="1160" y="400" as="sourcePoint" />
            <Array as="points">
              <mxPoint x="1160" y="421" />
              <mxPoint x="1160" y="421" />
            </Array>
          </mxGeometry>
        </mxCell>
        <mxCell id="b2nR_o1RXAUHNMXIAekX-30" value="CadAtividades" style="swimlane;html=1;fontStyle=1;align=center;verticalAlign=top;childLayout=stackLayout;horizontal=1;startSize=26;horizontalStack=0;resizeParent=1;resizeLast=0;collapsible=1;marginBottom=0;swimlaneFillColor=#ffffff;rounded=0;shadow=0;comic=0;labelBackgroundColor=none;strokeWidth=1;fillColor=none;fontFamily=Verdana;fontSize=12" parent="1" vertex="1">
          <mxGeometry x="1080" y="40" width="240" height="360" as="geometry" />
        </mxCell>
        <mxCell id="b2nR_o1RXAUHNMXIAekX-31" value="- id : Long" style="text;html=1;strokeColor=default;fillColor=none;align=left;verticalAlign=top;spacingLeft=4;spacingRight=4;whiteSpace=wrap;overflow=hidden;rotatable=0;points=[[0,0.5],[1,0.5]];portConstraint=eastwest;perimeterSpacing=1;" parent="b2nR_o1RXAUHNMXIAekX-30" vertex="1">
          <mxGeometry y="26" width="240" height="26" as="geometry" />
        </mxCell>
        <mxCell id="b2nR_o1RXAUHNMXIAekX-33" value="- Tipo : tipoCadastro" style="text;html=1;strokeColor=default;fillColor=none;align=left;verticalAlign=top;spacingLeft=4;spacingRight=4;whiteSpace=wrap;overflow=hidden;rotatable=0;points=[[0,0.5],[1,0.5]];portConstraint=eastwest;" parent="b2nR_o1RXAUHNMXIAekX-30" vertex="1">
          <mxGeometry y="52" width="240" height="26" as="geometry" />
        </mxCell>
        <mxCell id="b2nR_o1RXAUHNMXIAekX-41" value="- Area : Integer" style="text;html=1;strokeColor=default;fillColor=none;align=left;verticalAlign=top;spacingLeft=4;spacingRight=4;whiteSpace=wrap;overflow=hidden;rotatable=0;points=[[0,0.5],[1,0.5]];portConstraint=eastwest;" parent="b2nR_o1RXAUHNMXIAekX-30" vertex="1">
          <mxGeometry y="78" width="240" height="30" as="geometry" />
        </mxCell>
        <mxCell id="b2nR_o1RXAUHNMXIAekX-35" value="- Instituicao : Integer" style="text;html=1;strokeColor=default;fillColor=none;align=left;verticalAlign=top;spacingLeft=4;spacingRight=4;whiteSpace=wrap;overflow=hidden;rotatable=0;points=[[0,0.5],[1,0.5]];portConstraint=eastwest;" parent="b2nR_o1RXAUHNMXIAekX-30" vertex="1">
          <mxGeometry y="108" width="240" height="30" as="geometry" />
        </mxCell>
        <mxCell id="b2nR_o1RXAUHNMXIAekX-34" value="- professor: Integer" style="text;html=1;strokeColor=default;fillColor=none;align=left;verticalAlign=top;spacingLeft=4;spacingRight=4;whiteSpace=wrap;overflow=hidden;rotatable=0;points=[[0,0.5],[1,0.5]];portConstraint=eastwest;" parent="b2nR_o1RXAUHNMXIAekX-30" vertex="1">
          <mxGeometry y="138" width="240" height="26" as="geometry" />
        </mxCell>
        <mxCell id="b2nR_o1RXAUHNMXIAekX-42" value="- QtdVagas : Integer&amp;nbsp;" style="text;html=1;strokeColor=default;fillColor=none;align=left;verticalAlign=top;spacingLeft=4;spacingRight=4;whiteSpace=wrap;overflow=hidden;rotatable=0;points=[[0,0.5],[1,0.5]];portConstraint=eastwest;" parent="b2nR_o1RXAUHNMXIAekX-30" vertex="1">
          <mxGeometry y="164" width="240" height="26" as="geometry" />
        </mxCell>
        <mxCell id="b2nR_o1RXAUHNMXIAekX-43" value="- dataInicio : LocalDate" style="text;html=1;strokeColor=default;fillColor=none;align=left;verticalAlign=top;spacingLeft=4;spacingRight=4;whiteSpace=wrap;overflow=hidden;rotatable=0;points=[[0,0.5],[1,0.5]];portConstraint=eastwest;" parent="b2nR_o1RXAUHNMXIAekX-30" vertex="1">
          <mxGeometry y="190" width="240" height="26" as="geometry" />
        </mxCell>
        <mxCell id="b2nR_o1RXAUHNMXIAekX-44" value="- dataFim: LocalDate" style="text;html=1;strokeColor=default;fillColor=none;align=left;verticalAlign=top;spacingLeft=4;spacingRight=4;whiteSpace=wrap;overflow=hidden;rotatable=0;points=[[0,0.5],[1,0.5]];portConstraint=eastwest;" parent="b2nR_o1RXAUHNMXIAekX-30" vertex="1">
          <mxGeometry y="216" width="240" height="26" as="geometry" />
        </mxCell>
        <mxCell id="b2nR_o1RXAUHNMXIAekX-45" value="- horariosDisp : List&amp;lt;LocalTime&amp;gt;" style="text;html=1;strokeColor=default;fillColor=none;align=left;verticalAlign=top;spacingLeft=4;spacingRight=4;whiteSpace=wrap;overflow=hidden;rotatable=0;points=[[0,0.5],[1,0.5]];portConstraint=eastwest;" parent="b2nR_o1RXAUHNMXIAekX-30" vertex="1">
          <mxGeometry y="242" width="240" height="26" as="geometry" />
        </mxCell>
        <mxCell id="b2nR_o1RXAUHNMXIAekX-52" value="- periodosPermitidos : List&amp;lt;periodos&amp;gt;" style="text;html=1;strokeColor=default;fillColor=none;align=left;verticalAlign=top;spacingLeft=4;spacingRight=4;whiteSpace=wrap;overflow=hidden;rotatable=0;points=[[0,0.5],[1,0.5]];portConstraint=eastwest;" parent="b2nR_o1RXAUHNMXIAekX-30" vertex="1">
          <mxGeometry y="268" width="240" height="26" as="geometry" />
        </mxCell>
        <mxCell id="b2nR_o1RXAUHNMXIAekX-53" value="- diasSemana: List&amp;lt;disponibilidadeDias&amp;gt;" style="text;html=1;strokeColor=default;fillColor=none;align=left;verticalAlign=top;spacingLeft=4;spacingRight=4;whiteSpace=wrap;overflow=hidden;rotatable=0;points=[[0,0.5],[1,0.5]];portConstraint=eastwest;" parent="b2nR_o1RXAUHNMXIAekX-30" vertex="1">
          <mxGeometry y="294" width="240" height="26" as="geometry" />
        </mxCell>
        <mxCell id="b2nR_o1RXAUHNMXIAekX-37" value="CadAreasAtuacaoHospitalar" style="swimlane;html=1;fontStyle=1;align=center;verticalAlign=top;childLayout=stackLayout;horizontal=1;startSize=26;horizontalStack=0;resizeParent=1;resizeLast=0;collapsible=1;marginBottom=0;swimlaneFillColor=#ffffff;rounded=0;shadow=0;comic=0;labelBackgroundColor=none;strokeWidth=1;fillColor=none;fontFamily=Verdana;fontSize=12" parent="1" vertex="1">
          <mxGeometry x="1400" y="40" width="200" height="120" as="geometry" />
        </mxCell>
        <mxCell id="b2nR_o1RXAUHNMXIAekX-38" value="- areasAtuacao : Map&amp;lt;integer, String&amp;gt;" style="text;html=1;strokeColor=default;fillColor=none;align=left;verticalAlign=top;spacingLeft=4;spacingRight=4;whiteSpace=wrap;overflow=hidden;rotatable=0;points=[[0,0.5],[1,0.5]];portConstraint=eastwest;" parent="b2nR_o1RXAUHNMXIAekX-37" vertex="1">
          <mxGeometry y="26" width="200" height="34" as="geometry" />
        </mxCell>
        <mxCell id="b2nR_o1RXAUHNMXIAekX-47" value="CadEnums" style="swimlane;html=1;fontStyle=1;align=center;verticalAlign=top;childLayout=stackLayout;horizontal=1;startSize=26;horizontalStack=0;resizeParent=1;resizeLast=0;collapsible=1;marginBottom=0;swimlaneFillColor=#ffffff;rounded=0;shadow=0;comic=0;labelBackgroundColor=none;strokeWidth=1;fillColor=none;fontFamily=Verdana;fontSize=12" parent="1" vertex="1">
          <mxGeometry x="360" y="40" width="160" height="160" as="geometry" />
        </mxCell>
        <mxCell id="b2nR_o1RXAUHNMXIAekX-48" value="+ tipoCadastro: Enum" style="text;html=1;strokeColor=none;fillColor=none;align=left;verticalAlign=top;spacingLeft=4;spacingRight=4;whiteSpace=wrap;overflow=hidden;rotatable=0;points=[[0,0.5],[1,0.5]];portConstraint=eastwest;" parent="b2nR_o1RXAUHNMXIAekX-47" vertex="1">
          <mxGeometry y="26" width="160" height="26" as="geometry" />
        </mxCell>
        <mxCell id="b2nR_o1RXAUHNMXIAekX-57" value="+ tipoAtividade : Enum" style="text;html=1;strokeColor=none;fillColor=none;align=left;verticalAlign=top;spacingLeft=4;spacingRight=4;whiteSpace=wrap;overflow=hidden;rotatable=0;points=[[0,0.5],[1,0.5]];portConstraint=eastwest;" parent="b2nR_o1RXAUHNMXIAekX-47" vertex="1">
          <mxGeometry y="52" width="160" height="26" as="geometry" />
        </mxCell>
        <mxCell id="b2nR_o1RXAUHNMXIAekX-49" value="+ periodos : Enum" style="text;html=1;strokeColor=none;fillColor=none;align=left;verticalAlign=top;spacingLeft=4;spacingRight=4;whiteSpace=wrap;overflow=hidden;rotatable=0;points=[[0,0.5],[1,0.5]];portConstraint=eastwest;" parent="b2nR_o1RXAUHNMXIAekX-47" vertex="1">
          <mxGeometry y="78" width="160" height="26" as="geometry" />
        </mxCell>
        <mxCell id="b2nR_o1RXAUHNMXIAekX-51" value="+ disponibilidadeDias: Enum" style="text;html=1;strokeColor=none;fillColor=none;align=left;verticalAlign=top;spacingLeft=4;spacingRight=4;whiteSpace=wrap;overflow=hidden;rotatable=0;points=[[0,0.5],[1,0.5]];portConstraint=eastwest;" parent="b2nR_o1RXAUHNMXIAekX-47" vertex="1">
          <mxGeometry y="104" width="160" height="56" as="geometry" />
        </mxCell>
        <mxCell id="b2nR_o1RXAUHNMXIAekX-59" value="" style="endArrow=none;html=1;rounded=0;entryX=0.001;entryY=0.409;entryDx=0;entryDy=0;exitX=0.999;exitY=0.722;exitDx=0;exitDy=0;exitPerimeter=0;entryPerimeter=0;" parent="1" source="b2nR_o1RXAUHNMXIAekX-41" target="b2nR_o1RXAUHNMXIAekX-38" edge="1">
          <mxGeometry width="50" height="50" relative="1" as="geometry">
            <mxPoint x="960" y="240" as="sourcePoint" />
            <mxPoint x="1010" y="190" as="targetPoint" />
            <Array as="points">
              <mxPoint x="1360" y="140" />
              <mxPoint x="1360" y="79" />
            </Array>
          </mxGeometry>
        </mxCell>
        <mxCell id="b2nR_o1RXAUHNMXIAekX-60" value="CadAtividadesAlunos" style="swimlane;html=1;fontStyle=1;align=center;verticalAlign=top;childLayout=stackLayout;horizontal=1;startSize=26;horizontalStack=0;resizeParent=1;resizeLast=0;collapsible=1;marginBottom=0;swimlaneFillColor=#ffffff;rounded=0;shadow=0;comic=0;labelBackgroundColor=none;strokeWidth=1;fillColor=none;fontFamily=Verdana;fontSize=12" parent="1" vertex="1">
          <mxGeometry x="1080" y="440" width="190" height="80" as="geometry" />
        </mxCell>
        <mxCell id="b2nR_o1RXAUHNMXIAekX-61" value="- alunosAtividades : Map&amp;lt;integer, integer&amp;gt;&amp;nbsp;" style="text;html=1;strokeColor=none;fillColor=none;align=left;verticalAlign=top;spacingLeft=4;spacingRight=4;whiteSpace=wrap;overflow=hidden;rotatable=0;points=[[0,0.5],[1,0.5]];portConstraint=eastwest;" parent="b2nR_o1RXAUHNMXIAekX-60" vertex="1">
          <mxGeometry y="26" width="190" height="34" as="geometry" />
        </mxCell>
        <mxCell id="b2nR_o1RXAUHNMXIAekX-67" value="" style="endArrow=none;html=1;rounded=0;exitX=0;exitY=0.5;exitDx=0;exitDy=0;entryX=1;entryY=0.5;entryDx=0;entryDy=0;" parent="1" target="78961159f06e98e8-23" edge="1">
          <mxGeometry width="50" height="50" relative="1" as="geometry">
            <mxPoint x="1080" y="505" as="sourcePoint" />
            <mxPoint x="1040" y="190" as="targetPoint" />
            <Array as="points">
              <mxPoint x="1040" y="505" />
              <mxPoint x="1040" y="80" />
            </Array>
          </mxGeometry>
        </mxCell>
        <mxCell id="b2nR_o1RXAUHNMXIAekX-71" value="" style="endArrow=none;html=1;rounded=0;entryX=0.005;entryY=0.864;entryDx=0;entryDy=0;entryPerimeter=0;" parent="1" target="b2nR_o1RXAUHNMXIAekX-34" edge="1">
          <mxGeometry width="50" height="50" relative="1" as="geometry">
            <mxPoint x="921" y="90" as="sourcePoint" />
            <mxPoint x="1077" y="200" as="targetPoint" />
            <Array as="points">
              <mxPoint x="960" y="90" />
              <mxPoint x="960" y="200" />
            </Array>
          </mxGeometry>
        </mxCell>
        <mxCell id="b2nR_o1RXAUHNMXIAekX-72" value="" style="endArrow=none;html=1;rounded=0;entryX=0.004;entryY=0.536;entryDx=0;entryDy=0;entryPerimeter=0;" parent="1" target="b2nR_o1RXAUHNMXIAekX-31" edge="1">
          <mxGeometry width="50" height="50" relative="1" as="geometry">
            <mxPoint x="1040" y="80" as="sourcePoint" />
            <mxPoint x="1070" y="220" as="targetPoint" />
          </mxGeometry>
        </mxCell>
      </root>
    </mxGraphModel>
  </diagram>
</mxfile>
